<?xml version="1.0" standalone="no"?><!DOCTYPE svg PUBLIC "-//W3C//DTD SVG 1.1//EN" "http://www.w3.org/Graphics/SVG/1.1/DTD/svg11.dtd"><svg t="1657972437434" class="icon" viewBox="0 0 1024 1024" version="1.1" xmlns="http://www.w3.org/2000/svg" p-id="1171" xmlns:xlink="http://www.w3.org/1999/xlink" width="200" height="200"><defs><style type="text/css">@font-face { font-family: feedback-iconfont; src: url("//at.alicdn.com/t/font_1031158_u69w8yhxdu.woff2?t=1630033759944") format("woff2"), url("//at.alicdn.com/t/font_1031158_u69w8yhxdu.woff?t=1630033759944") format("woff"), url("//at.alicdn.com/t/font_1031158_u69w8yhxdu.ttf?t=1630033759944") format("truetype"); }
</style></defs><path d="M472.71 239.43s-25.94 6.7-66.32-3.32c-40.38-10.03-48-40.89-48-40.89-4.45-6.63-0.36-7.98 6.05-11.79 0 0 1.39-10.23 41.77-0.2 40.38 10.02 66.5 56.2 66.5 56.2z" fill="#9CCB3B" p-id="1172"></path><path d="M438.29 297.5c-59.17 0-104.12 16.76-133.71 50-23.6 26.49-38.11 63.76-43.07 110.86-4.12 39.14-1.69 84.08 7.21 133.61 13.02 72.19 35.02 133.89 65.26 183.24 34.08 55.62 62.5 84.46 115.68 105.62 0 0 61.42-7.98 84.73-17.15 16.39-6.46 36.29 8.35 56.71 8.35 20.97 0 79.57 13.45 59.64 12.36-76.76-4.2 13.35-29.24 43.17-36.12 59.24-13.68 51.8-50.43 84.48-101.93 30.33-47.75 37.77-52.48 52-130.67 6.09-33.52 15.02-65.44 9.97-116-5.06-50.56 8.81-87.97-15.91-115.21-31.74-34.83-27.83-93.89-91.59-88.45-7.02 0.56-11.06-16.06-18.46-14.1-23.78 6.37-75.6 1.77-112.49 1.77-28.37 0-69.32 29.55-95.36 23.47-17.41-4.12-33.99-8.06-46.53-8.9-7.41-0.47-14.71-0.75-21.73-0.75z" fill="#F25C5C" p-id="1173"></path><path d="M475.57 844.59c1.65-0.7 3.18-1.51 4.81-2.23-15.1-4.58-30.66-8.42-47.05-8.42-9.08 0-17.41 1.39-25.37 3.42 0.62 0.2 1.26 0.39 1.89 0.59 24.9 7.95 46.44 14.78 65.72 6.64zM565.65 875.42c0.64 0.21 1.31 0.41 1.96 0.61 24.9 7.96 46.44 14.79 65.72 6.65 1.65-0.7 3.18-1.52 4.81-2.23-15.1-4.58-30.66-8.42-47.05-8.42-9.08 0-17.47 1.36-25.44 3.39z" fill="#F25C5C" p-id="1174"></path><path d="M765.09 770.98c30.33-47.75 51.97-109.08 66.19-187.26 6.08-33.52 12.27-84.08 7.21-134.64-5.06-50.56-20.13-89.89-44.86-117.13-15.18-16.66-34.28-28.62-56.95-36.11-1.31 0.1-2.52 0.07-3.84 0.18-5.57 0.44-11.79 1.18-17.84 2.38 1.3 1.31 2.74 2.45 3.99 3.82 24.72 27.24 39.79 66.57 44.85 117.13 5.05 50.56-1.13 101.13-7.21 134.64-14.23 78.18-35.87 139.52-66.2 187.26-32.68 51.5-75.75 88.02-131.74 111.7-19.29 8.15-40.82 1.31-65.73-6.65-4.16-1.33-8.37-2.66-12.59-3.94-1.63 0.72-3.16 1.54-4.81 2.23-19.28 8.15-40.82 1.31-65.72-6.65-0.62-0.2-1.26-0.39-1.89-0.59-6.32 1.61-12.41 3.61-18.33 5.82 16.64 15.08 34.67 27.64 54.03 37.66 3.48-1.29 6.97-2.63 10.56-4.05 16.38-6.46 33.33-13.11 53.75-13.11 20.25 0 39.28 5.86 57.68 11.74 7.97-2.03 16.35-3.39 25.44-3.39 16.38 0 31.95 3.84 47.05 8.42 53.62-23.72 95.24-59.48 126.96-109.46z" fill="#D84848" p-id="1175"></path><path d="M415.66 895.41c-10.75 0-22.39-1.99-35.22-7.04-56.07-22.3-102.47-63.02-138.05-121.07-30.7-50.11-52.91-112.32-66-184.82-9.03-50.02-11.47-95.61-7.23-135.52 5.33-50.38 21.22-90.74 47.31-119.99 37.11-41.53 93.98-60.13 169.11-55.35 14.08 0.9 30.88 4.97 48.75 9.12 23.84 5.69 50.74 12.01 75.39 12.01 33.68 0 92.36-14.9 109.6-19.5 9.03-2.44 18.06-3.25 25.83-3.88 69.07-5.96 122.34 11.02 158.09 50.29 27.36 29.97 43.88 72.5 49.21 126.4 5.15 51.46-1.08 102.56-7.23 136.33-14.26 78.46-36.2 140.31-67.08 188.97-34.13 53.81-79.18 92-137.69 116.74-26.64 11.29-53.54 2.71-79.64-5.6-16.61-5.33-33.86-10.74-50.38-10.74-15.26 0-28.89 5.33-43.25 11.01-15.4 6.14-31.93 12.64-51.52 12.64z m-52.73-601.04c-57.06 0-100.4 16.16-128.93 48.22-22.75 25.55-36.75 61.48-41.53 106.9-3.97 37.74-1.63 81.08 6.95 128.84 12.55 69.61 33.76 129.11 62.93 176.69 32.86 53.63 75.48 91.1 126.76 111.51 27.54 11.02 46.86 3.34 69.34-5.51 15.8-6.23 32.14-12.64 51.83-12.64 20.22 0 39.18 6.05 57.51 11.92 24.02 7.68 44.78 14.27 63.38 6.41 53.99-22.84 95.52-58.06 127.04-107.71 29.25-46.04 50.11-105.18 63.83-180.57 5.87-32.32 11.83-81.08 6.95-129.83-4.88-48.75-19.41-86.68-43.25-112.95-30.61-33.59-77.29-47.94-138.77-42.7-6.77 0.54-14.62 1.26-21.76 3.16-22.93 6.14-80.09 20.23-115.66 20.23-27.36 0-55.71-6.77-80.81-12.64-16.79-3.97-32.77-7.77-44.87-8.58-7.12-0.47-14.17-0.75-20.94-0.75z m0 0" fill="#333333" p-id="1176"></path><path d="M509.74 316.4c-3.7 0-7.31-1.71-9.57-4.96-18.33-26.09-24.92-53.36-19.41-80.9 11.01-55.44 67.17-91.55 69.61-93.09 5.51-3.43 12.73-1.81 16.16 3.61 3.43 5.51 1.8 12.73-3.61 16.16-0.54 0.36-50.11 32.41-59.14 77.92-4.15 20.95 1.08 42.08 15.62 62.66 3.7 5.33 2.44 12.64-2.89 16.34a11.179 11.179 0 0 1-6.77 2.26z m0 0" fill="#333333" p-id="1177"></path><path d="M499.72 256.82l-23.83-16.88c-17.43 5.32-62.03 15.8-94.53-5.15-20.4-13.09-32.14-35.57-34.94-66.81l-0.81-9.12 8.67-2.98c1.81-0.63 45.32-15.35 84.69 4.33 23.57 11.73 40.36 33.05 50.02 63.11l10.73 33.5z m-128.66-81.08c3.25 18.41 10.93 31.6 22.93 39.27 21.13 13.54 51.91 8.58 68.44 4.24-7.76-17.88-19.14-30.61-33.86-38.01-21.12-10.56-44.87-8.03-57.51-5.5z m0 0" fill="#333333" p-id="1178"></path><path d="M324.1 640.22c1.11-4.48 4.76-8.14 9.61-8.87 6.48-1.03 12.6 3.33 13.73 9.82 10.2 61.49 41.83 115.95 86.8 149.64 5.23 3.9 6.35 11.42 2.44 16.65-3.9 5.23-11.42 6.35-16.65 2.44-49.86-37.27-84.86-97.33-96.05-164.73-0.29-1.8-0.22-3.39 0.12-4.95" fill="#FFFFFF" p-id="1179"></path></svg>